<svg width="29" height="29" viewBox="0 0 29 29" fill="none" xmlns="http://www.w3.org/2000/svg">
<path fill-rule="evenodd" clip-rule="evenodd" d="M10.7492 3.90681C13.291 2.42988 16.4154 2.45569 18.9334 3.97443C21.4267 5.5241 22.942 8.2898 22.9279 11.2649C22.8699 14.2205 21.245 16.9988 19.2139 19.1465C18.0416 20.3917 16.7302 21.4928 15.3065 22.4273C15.1598 22.5121 14.9992 22.5688 14.8326 22.5947C14.6721 22.5879 14.5159 22.5405 14.378 22.4568C12.2044 21.0527 10.2975 19.2605 8.74897 17.1663C7.45324 15.4182 6.7171 13.3062 6.6405 11.1171C6.63882 8.13631 8.20733 5.38374 10.7492 3.90681ZM12.218 12.3508C12.6456 13.4049 13.6549 14.0925 14.7745 14.0925C15.5081 14.0977 16.2132 13.8039 16.7328 13.2765C17.2524 12.7491 17.5433 12.0318 17.5407 11.2846C17.5446 10.1441 16.8731 9.11365 15.8398 8.67442C14.8065 8.23519 13.6151 8.47383 12.822 9.27889C12.0289 10.084 11.7905 11.2967 12.218 12.3508Z" fill="#0D62FF"/>
<ellipse opacity="0.4" cx="14.7843" cy="24.9215" rx="5.81699" ry="1.1634" fill="#0D62FF"/>
</svg>
