<svg width="29" height="29" viewBox="0 0 29 29" fill="none" xmlns="http://www.w3.org/2000/svg">
<path opacity="0.4" d="M16.3026 7.64752V7.86047C15.7318 7.84926 15.1609 7.84926 14.5901 7.84926V7.65873C14.5901 6.88538 13.9393 6.25773 13.1629 6.25773H12.0326C10.7425 6.25773 9.69214 5.2266 9.69214 3.9713C9.69214 3.51178 10.0803 3.13071 10.5484 3.13071C11.0279 3.13071 11.4047 3.51178 11.4047 3.9713C11.4047 4.30754 11.6901 4.57654 12.0326 4.57654H13.1629C14.8869 4.58774 16.2912 5.96632 16.3026 7.64752Z" fill="#0D62FF"/>
<path fill-rule="evenodd" clip-rule="evenodd" d="M18.4652 7.88048C18.8318 7.88551 19.1993 7.89055 19.568 7.89432C23.5297 7.89432 26.4182 10.7187 26.4182 14.6191V19.6291C26.4182 23.5294 23.5297 26.3538 19.568 26.3538C17.981 26.3875 16.3941 26.3987 14.7957 26.3987C13.1973 26.3987 11.5875 26.3875 10.0005 26.3538C6.03878 26.3538 3.15027 23.5294 3.15027 19.6291V14.6191C3.15027 10.7187 6.03879 7.89432 10.0119 7.89432C11.5076 7.8719 13.0374 7.84949 14.5902 7.84949C15.161 7.84949 15.7319 7.84949 16.3027 7.8607C17.0225 7.8607 17.7422 7.87057 18.4652 7.88048ZM13.4485 17.9591H12.2497V19.1471C12.2497 19.6067 11.8615 19.9877 11.3934 19.9877C10.9139 19.9877 10.5371 19.6067 10.5371 19.1471V17.9591H9.32689C8.85879 17.9591 8.47061 17.5892 8.47061 17.1185C8.47061 16.659 8.85879 16.2779 9.32689 16.2779H10.5371V15.101C10.5371 14.6415 10.9139 14.2604 11.3934 14.2604C11.8615 14.2604 12.2497 14.6415 12.2497 15.101V16.2779H13.4485C13.9165 16.2779 14.3047 16.659 14.3047 17.1185C14.3047 17.5892 13.9165 17.9591 13.4485 17.9591ZM18.3007 16.0649H18.4149C18.883 16.0649 19.2711 15.6951 19.2711 15.2243C19.2711 14.7648 18.883 14.3837 18.4149 14.3837H18.3007C17.8212 14.3837 17.4444 14.7648 17.4444 15.2243C17.4444 15.6951 17.8212 16.0649 18.3007 16.0649ZM20.253 19.9205H20.3672C20.8353 19.9205 21.2235 19.5506 21.2235 19.0799C21.2235 18.6204 20.8353 18.2393 20.3672 18.2393H20.253C19.7735 18.2393 19.3967 18.6204 19.3967 19.0799C19.3967 19.5506 19.7735 19.9205 20.253 19.9205Z" fill="#0D62FF"/>
</svg>
