<svg width="29" height="29" viewBox="0 0 29 29" fill="none" xmlns="http://www.w3.org/2000/svg">
<path opacity="0.4" d="M25.5457 16.3254C24.5905 16.3254 23.8134 15.5554 23.8134 14.609C23.8134 13.6614 24.5905 12.8913 25.5457 12.8913C25.7772 12.8913 25.9994 12.8003 26.1623 12.6389C26.3263 12.4763 26.4182 12.2562 26.4182 12.0268L26.4171 8.91199C26.4171 6.27906 24.2543 4.13722 21.5971 4.13722H7.97139C5.31419 4.13722 3.15143 6.27906 3.15143 8.91199L3.15027 12.1271C3.15027 12.3565 3.24218 12.5766 3.40622 12.7392C3.56909 12.9006 3.7913 12.9916 4.02282 12.9916C5.01054 12.9916 5.75512 13.6867 5.75512 14.609C5.75512 15.5554 4.97797 16.3254 4.02282 16.3254C3.54117 16.3254 3.15027 16.7128 3.15027 17.19V20.3025C3.15027 22.9354 5.31186 25.0784 7.97023 25.0784H21.5983C24.2566 25.0784 26.4182 22.9354 26.4182 20.3025V17.19C26.4182 16.7128 26.0273 16.3254 25.5457 16.3254Z" fill="#0D62FF"/>
<path d="M18.7753 14.1292L17.4036 15.4648L17.7282 17.353C17.7841 17.6799 17.6526 18.0021 17.3838 18.1953C17.1174 18.3907 16.7696 18.4151 16.4764 18.2593L14.7836 17.3693L13.0874 18.2604C12.9618 18.3267 12.8245 18.3616 12.6884 18.3616C12.5104 18.3616 12.3347 18.3058 12.1835 18.1964C11.9159 18.0021 11.7844 17.6799 11.8402 17.353L12.1637 15.4648L10.792 14.1292C10.5547 13.8988 10.4721 13.5603 10.5745 13.245C10.678 12.9309 10.9456 12.7075 11.2725 12.661L13.1642 12.3853L14.0123 10.6669C14.1601 10.3714 14.4556 10.1876 14.7836 10.1876H14.786C15.1152 10.1888 15.4107 10.3726 15.5561 10.6681L16.4043 12.3853L18.2994 12.6621C18.6229 12.7075 18.8904 12.9309 18.9928 13.245C19.0964 13.5603 19.0138 13.8988 18.7753 14.1292Z" fill="#0D62FF"/>
</svg>
